<mxfile host="app.diagrams.net" modified="2022-04-12T21:33:54.277Z" agent="5.0 (Windows)" etag="ZowreEUhxuStW2xmq0YW" version="17.4.3" type="github">
  <diagram id="ZvQA713mFV4z2Iqp4Omd" name="Page-1">
    <mxGraphModel dx="1483" dy="766" grid="1" gridSize="10" guides="1" tooltips="1" connect="1" arrows="1" fold="1" page="1" pageScale="1" pageWidth="1169" pageHeight="827" math="0" shadow="0">
      <root>
        <mxCell id="0" />
        <mxCell id="1" parent="0" />
        <mxCell id="Gvp34IYaRxWbPyMomxuj-3" value="&lt;font style=&quot;font-size: 20px&quot;&gt;&lt;b&gt;Front-end&lt;/b&gt;&lt;/font&gt;" style="text;html=1;strokeColor=none;fillColor=none;align=center;verticalAlign=middle;whiteSpace=wrap;rounded=0;" vertex="1" parent="1">
          <mxGeometry x="520" y="10" width="100" height="30" as="geometry" />
        </mxCell>
        <mxCell id="Gvp34IYaRxWbPyMomxuj-4" value="Main_menu" style="swimlane;fontStyle=0;childLayout=stackLayout;horizontal=1;startSize=30;horizontalStack=0;resizeParent=1;resizeParentMax=0;resizeLast=0;collapsible=1;marginBottom=0;fontSize=20;" vertex="1" parent="1">
          <mxGeometry x="20" y="100" width="170" height="90" as="geometry" />
        </mxCell>
        <mxCell id="Gvp34IYaRxWbPyMomxuj-5" value="1. Log In/Sing Up" style="text;strokeColor=none;fillColor=none;align=left;verticalAlign=middle;spacingLeft=4;spacingRight=4;overflow=hidden;points=[[0,0.5],[1,0.5]];portConstraint=eastwest;rotatable=0;fontSize=20;" vertex="1" parent="Gvp34IYaRxWbPyMomxuj-4">
          <mxGeometry y="30" width="170" height="30" as="geometry" />
        </mxCell>
        <mxCell id="Gvp34IYaRxWbPyMomxuj-6" value="2. Anonymous" style="text;strokeColor=none;fillColor=none;align=left;verticalAlign=middle;spacingLeft=4;spacingRight=4;overflow=hidden;points=[[0,0.5],[1,0.5]];portConstraint=eastwest;rotatable=0;fontSize=20;" vertex="1" parent="Gvp34IYaRxWbPyMomxuj-4">
          <mxGeometry y="60" width="170" height="30" as="geometry" />
        </mxCell>
        <mxCell id="Gvp34IYaRxWbPyMomxuj-36" style="edgeStyle=elbowEdgeStyle;rounded=0;orthogonalLoop=1;jettySize=auto;html=1;exitX=1;exitY=0;exitDx=0;exitDy=0;fontSize=20;startArrow=classic;startFill=1;strokeColor=default;" edge="1" parent="1" source="Gvp34IYaRxWbPyMomxuj-8" target="Gvp34IYaRxWbPyMomxuj-31">
          <mxGeometry relative="1" as="geometry" />
        </mxCell>
        <mxCell id="Gvp34IYaRxWbPyMomxuj-8" value="Database_menu" style="swimlane;fontStyle=0;childLayout=stackLayout;horizontal=1;startSize=30;horizontalStack=0;resizeParent=1;resizeParentMax=0;resizeLast=0;collapsible=1;marginBottom=0;fontSize=20;" vertex="1" parent="1">
          <mxGeometry x="1150" y="370" width="190" height="120" as="geometry" />
        </mxCell>
        <mxCell id="Gvp34IYaRxWbPyMomxuj-9" value="1. Download" style="text;strokeColor=none;fillColor=none;align=left;verticalAlign=middle;spacingLeft=4;spacingRight=4;overflow=hidden;points=[[0,0.5],[1,0.5]];portConstraint=eastwest;rotatable=0;fontSize=20;" vertex="1" parent="Gvp34IYaRxWbPyMomxuj-8">
          <mxGeometry y="30" width="190" height="30" as="geometry" />
        </mxCell>
        <mxCell id="Gvp34IYaRxWbPyMomxuj-10" value="2. Create copy" style="text;strokeColor=none;fillColor=none;align=left;verticalAlign=middle;spacingLeft=4;spacingRight=4;overflow=hidden;points=[[0,0.5],[1,0.5]];portConstraint=eastwest;rotatable=0;fontSize=20;" vertex="1" parent="Gvp34IYaRxWbPyMomxuj-8">
          <mxGeometry y="60" width="190" height="30" as="geometry" />
        </mxCell>
        <mxCell id="Gvp34IYaRxWbPyMomxuj-11" value="3. Edit" style="text;strokeColor=none;fillColor=none;align=left;verticalAlign=middle;spacingLeft=4;spacingRight=4;overflow=hidden;points=[[0,0.5],[1,0.5]];portConstraint=eastwest;rotatable=0;fontSize=20;" vertex="1" parent="Gvp34IYaRxWbPyMomxuj-8">
          <mxGeometry y="90" width="190" height="30" as="geometry" />
        </mxCell>
        <mxCell id="Gvp34IYaRxWbPyMomxuj-12" value="Logging menu" style="swimlane;fontStyle=0;childLayout=stackLayout;horizontal=1;startSize=30;horizontalStack=0;resizeParent=1;resizeParentMax=0;resizeLast=0;collapsible=1;marginBottom=0;fontSize=20;" vertex="1" parent="1">
          <mxGeometry x="250" y="270" width="220" height="120" as="geometry" />
        </mxCell>
        <mxCell id="Gvp34IYaRxWbPyMomxuj-13" value="1. Log in as User" style="text;strokeColor=none;fillColor=none;align=left;verticalAlign=middle;spacingLeft=4;spacingRight=4;overflow=hidden;points=[[0,0.5],[1,0.5]];portConstraint=eastwest;rotatable=0;fontSize=20;" vertex="1" parent="Gvp34IYaRxWbPyMomxuj-12">
          <mxGeometry y="30" width="220" height="30" as="geometry" />
        </mxCell>
        <mxCell id="Gvp34IYaRxWbPyMomxuj-14" value="2. Log in as Admin" style="text;strokeColor=none;fillColor=none;align=left;verticalAlign=middle;spacingLeft=4;spacingRight=4;overflow=hidden;points=[[0,0.5],[1,0.5]];portConstraint=eastwest;rotatable=0;fontSize=20;" vertex="1" parent="Gvp34IYaRxWbPyMomxuj-12">
          <mxGeometry y="60" width="220" height="30" as="geometry" />
        </mxCell>
        <mxCell id="Gvp34IYaRxWbPyMomxuj-15" value="3. Sign Up" style="text;strokeColor=none;fillColor=none;align=left;verticalAlign=middle;spacingLeft=4;spacingRight=4;overflow=hidden;points=[[0,0.5],[1,0.5]];portConstraint=eastwest;rotatable=0;fontSize=20;" vertex="1" parent="Gvp34IYaRxWbPyMomxuj-12">
          <mxGeometry y="90" width="220" height="30" as="geometry" />
        </mxCell>
        <mxCell id="Gvp34IYaRxWbPyMomxuj-22" style="edgeStyle=elbowEdgeStyle;rounded=0;orthogonalLoop=1;jettySize=auto;html=1;exitX=1;exitY=0.5;exitDx=0;exitDy=0;entryX=0;entryY=0;entryDx=0;entryDy=0;fontSize=20;startArrow=none;startFill=0;strokeColor=default;" edge="1" parent="1" source="Gvp34IYaRxWbPyMomxuj-5" target="Gvp34IYaRxWbPyMomxuj-12">
          <mxGeometry relative="1" as="geometry" />
        </mxCell>
        <mxCell id="Gvp34IYaRxWbPyMomxuj-23" value="Admin Tools" style="swimlane;fontStyle=0;childLayout=stackLayout;horizontal=1;startSize=30;horizontalStack=0;resizeParent=1;resizeParentMax=0;resizeLast=0;collapsible=1;marginBottom=0;fontSize=20;" vertex="1" parent="1">
          <mxGeometry x="680" y="360" width="330" height="60" as="geometry" />
        </mxCell>
        <mxCell id="Gvp34IYaRxWbPyMomxuj-24" value="1. Full database menu " style="text;strokeColor=none;fillColor=none;align=left;verticalAlign=middle;spacingLeft=4;spacingRight=4;overflow=hidden;points=[[0,0.5],[1,0.5]];portConstraint=eastwest;rotatable=0;fontSize=20;" vertex="1" parent="Gvp34IYaRxWbPyMomxuj-23">
          <mxGeometry y="30" width="330" height="30" as="geometry" />
        </mxCell>
        <mxCell id="Gvp34IYaRxWbPyMomxuj-29" style="edgeStyle=elbowEdgeStyle;rounded=0;orthogonalLoop=1;jettySize=auto;html=1;exitX=1;exitY=0.5;exitDx=0;exitDy=0;entryX=0;entryY=0;entryDx=0;entryDy=0;fontSize=20;startArrow=none;startFill=0;strokeColor=default;" edge="1" parent="1" source="Gvp34IYaRxWbPyMomxuj-14" target="Gvp34IYaRxWbPyMomxuj-23">
          <mxGeometry relative="1" as="geometry" />
        </mxCell>
        <mxCell id="Gvp34IYaRxWbPyMomxuj-30" style="edgeStyle=elbowEdgeStyle;rounded=0;orthogonalLoop=1;jettySize=auto;html=1;exitX=1;exitY=0.5;exitDx=0;exitDy=0;entryX=0;entryY=0;entryDx=0;entryDy=0;fontSize=20;startArrow=none;startFill=0;strokeColor=default;" edge="1" parent="1" source="Gvp34IYaRxWbPyMomxuj-24" target="Gvp34IYaRxWbPyMomxuj-8">
          <mxGeometry relative="1" as="geometry" />
        </mxCell>
        <mxCell id="Gvp34IYaRxWbPyMomxuj-31" value="Back-end" style="text;html=1;strokeColor=none;fillColor=none;align=center;verticalAlign=middle;whiteSpace=wrap;rounded=0;fontSize=20;" vertex="1" parent="1">
          <mxGeometry x="1500" y="384" width="100" height="30" as="geometry" />
        </mxCell>
        <mxCell id="Gvp34IYaRxWbPyMomxuj-39" value="Back-end" style="text;strokeColor=none;fillColor=none;align=left;verticalAlign=middle;spacingLeft=4;spacingRight=4;overflow=hidden;points=[[0,0.5],[1,0.5]];portConstraint=eastwest;rotatable=0;sketch=0;fontSize=20;" vertex="1" parent="1">
          <mxGeometry x="550" y="490" width="100" height="30" as="geometry" />
        </mxCell>
        <mxCell id="Gvp34IYaRxWbPyMomxuj-40" style="edgeStyle=elbowEdgeStyle;rounded=0;orthogonalLoop=1;jettySize=auto;html=1;exitX=1;exitY=0.5;exitDx=0;exitDy=0;entryX=0;entryY=0.5;entryDx=0;entryDy=0;fontSize=20;startArrow=none;startFill=0;strokeColor=default;" edge="1" parent="1" source="Gvp34IYaRxWbPyMomxuj-15" target="Gvp34IYaRxWbPyMomxuj-39">
          <mxGeometry relative="1" as="geometry" />
        </mxCell>
        <mxCell id="Gvp34IYaRxWbPyMomxuj-41" value="Logged menu" style="swimlane;fontStyle=0;childLayout=stackLayout;horizontal=1;startSize=30;horizontalStack=0;resizeParent=1;resizeParentMax=0;resizeLast=0;collapsible=1;marginBottom=0;sketch=0;fontSize=20;" vertex="1" parent="1">
          <mxGeometry x="760" y="160" width="320" height="120" as="geometry" />
        </mxCell>
        <mxCell id="Gvp34IYaRxWbPyMomxuj-42" value="1. Check data" style="text;strokeColor=none;fillColor=none;align=left;verticalAlign=middle;spacingLeft=4;spacingRight=4;overflow=hidden;points=[[0,0.5],[1,0.5]];portConstraint=eastwest;rotatable=0;sketch=0;fontSize=20;" vertex="1" parent="Gvp34IYaRxWbPyMomxuj-41">
          <mxGeometry y="30" width="320" height="30" as="geometry" />
        </mxCell>
        <mxCell id="Gvp34IYaRxWbPyMomxuj-43" value="2. Edit data" style="text;strokeColor=none;fillColor=none;align=left;verticalAlign=middle;spacingLeft=4;spacingRight=4;overflow=hidden;points=[[0,0.5],[1,0.5]];portConstraint=eastwest;rotatable=0;sketch=0;fontSize=20;" vertex="1" parent="Gvp34IYaRxWbPyMomxuj-41">
          <mxGeometry y="60" width="320" height="30" as="geometry" />
        </mxCell>
        <mxCell id="Gvp34IYaRxWbPyMomxuj-51" value="3. " style="text;strokeColor=none;fillColor=none;align=left;verticalAlign=middle;spacingLeft=4;spacingRight=4;overflow=hidden;points=[[0,0.5],[1,0.5]];portConstraint=eastwest;rotatable=0;sketch=0;fontSize=20;" vertex="1" parent="Gvp34IYaRxWbPyMomxuj-41">
          <mxGeometry y="90" width="320" height="30" as="geometry" />
        </mxCell>
        <mxCell id="Gvp34IYaRxWbPyMomxuj-45" style="edgeStyle=elbowEdgeStyle;rounded=0;orthogonalLoop=1;jettySize=auto;html=1;exitX=1;exitY=0.5;exitDx=0;exitDy=0;entryX=0;entryY=0;entryDx=0;entryDy=0;fontSize=20;startArrow=none;startFill=0;strokeColor=default;" edge="1" parent="1" source="Gvp34IYaRxWbPyMomxuj-13" target="Gvp34IYaRxWbPyMomxuj-41">
          <mxGeometry relative="1" as="geometry" />
        </mxCell>
        <mxCell id="Gvp34IYaRxWbPyMomxuj-48" style="edgeStyle=elbowEdgeStyle;rounded=0;orthogonalLoop=1;jettySize=auto;html=1;exitX=0;exitY=0.5;exitDx=0;exitDy=0;entryX=0.996;entryY=0.072;entryDx=0;entryDy=0;entryPerimeter=0;fontSize=20;startArrow=classic;startFill=1;strokeColor=default;" edge="1" parent="1" source="Gvp34IYaRxWbPyMomxuj-46" target="Gvp34IYaRxWbPyMomxuj-13">
          <mxGeometry relative="1" as="geometry" />
        </mxCell>
        <mxCell id="Gvp34IYaRxWbPyMomxuj-46" value="Back-end" style="text;strokeColor=none;fillColor=none;align=left;verticalAlign=middle;spacingLeft=4;spacingRight=4;overflow=hidden;points=[[0,0.5],[1,0.5]];portConstraint=eastwest;rotatable=0;sketch=0;fontSize=20;" vertex="1" parent="1">
          <mxGeometry x="500" y="250" width="100" height="30" as="geometry" />
        </mxCell>
      </root>
    </mxGraphModel>
  </diagram>
</mxfile>
